<svg xmlns="http://www.w3.org/2000/svg" width="48" height="48" viewBox="0 0 48 48">
	<title>NewTab</title>
	<g>
		<path fill="#e8e8e8" d="M45,2H3C1.89545,2,1,2.89539,1,4v3h46V4C47,2.89539,46.10455,2,45,2z"></path>
		<rect x="1" y="7" fill="#1bde83" width="46" height="12"></rect>
		<path fill="#e8e8e8" d="M16,19v27h29c1.10455,0,2-0.89545,2-2V19H16z"></path>
		<path fill="#606060" d="M1,19v25c0,1.10455,0.89545,2,2,2h13V19H1z"></path>
		<circle fill="#e8e8e8" cx="8" cy="13" r="3"></circle>
		<path fill="#e8e8e8" d="M42,14h-4c-0.55225,0-1-0.44727-1-1s0.44775-1,1-1h4c0.55225,0,1,0.44727,1,1S42.55225,14,42,14z"></path>
		<path fill="#e8e8e8" d="M33,14h-9c-0.55225,0-1-0.44727-1-1s0.44775-1,1-1h9c0.55225,0,1,0.44727,1,1S33.55225,14,33,14z"></path>
		<path fill="#765ad2" d="M28.90455,36h-7.80911C20.49045,36,20,35.50955,20,34.90456v-9.80911C20,24.49045,20.49045,24,21.09545,24 h7.80911C29.50955,24,30,24.49045,30,25.09545v9.80911C30,35.50955,29.50955,36,28.90455,36z"></path>
		<path fill="#765ad2" d="M42,26h-8c-0.55225,0-1-0.44727-1-1s0.44775-1,1-1h8c0.55225,0,1,0.44727,1,1S42.55225,26,42,26z"></path>
		<path fill="#765ad2" d="M42,31h-8c-0.55225,0-1-0.44727-1-1s0.44775-1,1-1h8c0.55225,0,1,0.44727,1,1S42.55225,31,42,31z"></path>
		<path fill="#765ad2" d="M42,36h-8c-0.55225,0-1-0.44727-1-1s0.44775-1,1-1h8c0.55225,0,1,0.44727,1,1S42.55225,36,42,36z"></path>
		<path fill="#765ad2" d="M42,41H21c-0.55225,0-1-0.44727-1-1s0.44775-1,1-1h21c0.55225,0,1,0.44727,1,1S42.55225,41,42,41z"></path>
	</g>
</svg>